<svg width="14" height="14" viewBox="0 0 14 14" fill="none" xmlns="http://www.w3.org/2000/svg">
<path fill-rule="evenodd" clip-rule="evenodd" d="M9.33329 0.583336C9.65547 0.583336 9.91663 0.844506 9.91663 1.16667V1.75095C10.194 1.75286 10.4364 1.75859 10.6468 1.77578C10.9747 1.80257 11.2761 1.86007 11.5593 2.00432C11.9983 2.22803 12.3553 2.58498 12.579 3.02403C12.7232 3.30713 12.7807 3.60855 12.8075 3.93643C12.8333 4.25213 12.8333 4.63967 12.8333 5.10923V10.0574C12.8333 10.527 12.8333 10.9145 12.8075 11.2302C12.7807 11.5581 12.7232 11.8595 12.579 12.1427C12.3553 12.5817 11.9983 12.9386 11.5593 13.1623C11.2761 13.3066 10.9747 13.3641 10.6468 13.3909C10.3311 13.4167 9.94363 13.4167 9.47405 13.4167H4.52586C4.0563 13.4167 3.66876 13.4167 3.35306 13.3909C3.02517 13.3641 2.72376 13.3066 2.44065 13.1623C2.0016 12.9386 1.64465 12.5817 1.42095 12.1427C1.27669 11.8595 1.2192 11.5581 1.1924 11.2302C1.16661 10.9145 1.16662 10.527 1.16663 10.0574V5.10924C1.16662 4.63968 1.16661 4.25213 1.1924 3.93643C1.2192 3.60855 1.27669 3.30713 1.42095 3.02403C1.64465 2.58498 2.0016 2.22803 2.44065 2.00432C2.72376 1.86007 3.02517 1.80257 3.35306 1.77578C3.56353 1.75859 3.80594 1.75286 4.08329 1.75095V1.16667C4.08329 0.844506 4.34446 0.583336 4.66663 0.583336C4.9888 0.583336 5.24996 0.844506 5.24996 1.16667V1.75H8.74996V1.16667C8.74996 0.844506 9.01112 0.583336 9.33329 0.583336ZM4.08329 2.9177V3.5C4.08329 3.82217 4.34446 4.08334 4.66663 4.08334C4.9888 4.08334 5.24996 3.82217 5.24996 3.5V2.91667H8.74996V3.5C8.74996 3.82217 9.01112 4.08334 9.33329 4.08334C9.65547 4.08334 9.91663 3.82217 9.91663 3.5V2.9177C10.1765 2.91952 10.3806 2.92458 10.5519 2.93857C10.8076 2.95947 10.9384 2.99734 11.0296 3.04383C11.2491 3.15568 11.4276 3.33416 11.5395 3.55368C11.586 3.64491 11.6238 3.7757 11.6447 4.03144C11.6662 4.29399 11.6666 4.63366 11.6666 5.13334V5.25H2.33329V5.13334C2.33329 4.63366 2.33375 4.29399 2.3552 4.03144C2.37609 3.7757 2.41397 3.64491 2.46045 3.55368C2.5723 3.33416 2.75078 3.15568 2.9703 3.04383C3.06154 2.99734 3.19232 2.95947 3.44807 2.93857C3.61933 2.92458 3.8234 2.91952 4.08329 2.9177Z" fill="#F95C00"/>
</svg>
