<svg width="24" height="24" viewBox="0 0 24 24" fill="none" xmlns="http://www.w3.org/2000/svg">
<path d="M19.94 6.43001H4.06C2.95543 6.43001 2.06 7.32544 2.06 8.43001V18.47C2.06 19.5746 2.95543 20.47 4.06 20.47H19.94C21.0446 20.47 21.94 19.5746 21.94 18.47V8.43001C21.94 7.32544 21.0446 6.43001 19.94 6.43001Z" stroke="#F95C00" stroke-width="1.5" stroke-linecap="round" stroke-linejoin="round"/>
<path d="M12.39 16.32C14.1352 16.32 15.55 14.9052 15.55 13.16C15.55 11.4148 14.1352 10 12.39 10C10.6448 10 9.23001 11.4148 9.23001 13.16C9.23001 14.9052 10.6448 16.32 12.39 16.32Z" stroke="#F95C00" stroke-width="1.5" stroke-linecap="round" stroke-linejoin="round"/>
<path d="M18.45 10.82C18.8145 10.82 19.11 10.5245 19.11 10.16C19.11 9.79549 18.8145 9.5 18.45 9.5C18.0855 9.5 17.79 9.79549 17.79 10.16C17.79 10.5245 18.0855 10.82 18.45 10.82Z" stroke="#F95C00" stroke-width="1.5" stroke-linecap="round" stroke-linejoin="round"/>
<path d="M4.5 3.52H8.42" stroke="#F95C00" stroke-width="1.5" stroke-linecap="round" stroke-linejoin="round"/>
</svg>
