<svg width="16" height="16" viewBox="0 0 16 16" fill="none" xmlns="http://www.w3.org/2000/svg">
<path opacity="0.12" d="M11.3333 14.6667C13.1743 14.6667 14.6667 13.1743 14.6667 11.3333C14.6667 9.4924 13.1743 8 11.3333 8C9.4924 8 8 9.4924 8 11.3333C8 13.1743 9.4924 14.6667 11.3333 14.6667Z" fill="#0F1425"/>
<path d="M8 11.3333C8 10.5828 8.24807 9.8902 8.66667 9.333V3.33333M8 11.3333C8 11.8836 8.13333 12.4027 8.3694 12.8601C7.8078 13.3345 6.51056 13.6667 5 13.6667C2.97496 13.6667 1.33334 13.0697 1.33334 12.3333V3.33333M8.66667 3.33333C8.66667 4.06971 7.02507 4.66667 5 4.66667C2.97496 4.66667 1.33334 4.06971 1.33334 3.33333M8.66667 3.33333C8.66667 2.59695 7.02507 2 5 2C2.97496 2 1.33334 2.59695 1.33334 3.33333M1.33334 9.33333C1.33334 10.0697 2.97496 10.6667 5 10.6667C6.45934 10.6667 7.71953 10.3567 8.30973 9.90787M8.66667 6.33333C8.66667 7.06973 7.02507 7.66667 5 7.66667C2.97496 7.66667 1.33334 7.06973 1.33334 6.33333M8 11.3333C8 13.1743 9.4924 14.6667 11.3333 14.6667C13.1743 14.6667 14.6667 13.1743 14.6667 11.3333C14.6667 9.4924 13.1743 8 11.3333 8C9.4924 8 8 9.4924 8 11.3333Z" stroke="#0F1425" stroke-width="1.5" stroke-linecap="round" stroke-linejoin="round"/>
</svg>
