<svg width="16" height="16" viewBox="0 0 16 16" fill="none" xmlns="http://www.w3.org/2000/svg">
<path fill-rule="evenodd" clip-rule="evenodd" d="M7.33333 13.3334C7.33333 12.9652 7.63179 12.6667 7.99999 12.6667H14C14.3682 12.6667 14.6667 12.9652 14.6667 13.3334C14.6667 13.7016 14.3682 14 14 14H7.99999C7.63179 14 7.33333 13.7016 7.33333 13.3334Z" fill="#0F1425"/>
<path fill-rule="evenodd" clip-rule="evenodd" d="M10.5287 1.86191C11.3413 1.04929 12.6588 1.04928 13.4715 1.86191C14.2841 2.67455 14.2841 3.99209 13.4715 4.80473L5.09629 13.1799C5.08309 13.1931 5.07002 13.2062 5.05704 13.2192C4.86541 13.4112 4.69645 13.5805 4.49276 13.7053C4.31382 13.8149 4.11873 13.8957 3.91466 13.9447C3.68236 14.0005 3.44319 14.0003 3.17192 14C3.15356 14 3.13506 14 3.11639 14H2.00003C1.63184 14 1.33336 13.7015 1.33336 13.3333V12.217C1.33336 12.1983 1.33334 12.1798 1.33333 12.1615C1.33308 11.8902 1.33286 11.651 1.38862 11.4187C1.43762 11.2147 1.51842 11.0195 1.62808 10.8406C1.75291 10.6369 1.92218 10.4679 2.11417 10.2763C2.12717 10.2633 2.14027 10.2503 2.15346 10.2371L10.5287 1.86191Z" fill="#0F1425"/>
</svg>
