<svg width="16" height="16" viewBox="0 0 16 16" fill="none" xmlns="http://www.w3.org/2000/svg">
<g clip-path="url(#clip0_20_483)">
<path d="M8.04261 -3.05176e-05C4.15298 -3.05176e-05 1 3.15295 1 7.04258C1 10.5575 3.57548 13.4711 6.94255 14V9.07789H5.15373V7.04258H6.94255V5.49109C6.94255 3.72621 7.99331 2.75152 9.60255 2.75152C10.373 2.75152 11.1787 2.88885 11.1787 2.88885V4.62133H10.2913C9.41592 4.62133 9.14337 5.16431 9.14337 5.72138V7.04258H11.0963L10.7843 9.07789H9.14337V14C12.5097 13.4718 15.0852 10.5568 15.0852 7.04258C15.0852 3.15295 11.9322 -3.05176e-05 8.04261 -3.05176e-05Z" fill="#4267B2"/>
</g>
<defs>
<clipPath id="clip0_20_483">
<rect width="16" height="16" fill="white"/>
</clipPath>
</defs>
</svg>
