<svg width="16" height="16" viewBox="0 0 16 16" fill="none" xmlns="http://www.w3.org/2000/svg">
<g clip-path="url(#clip0_20_480)">
<path d="M2.04259 5.00666C2.59726 3.90216 3.44817 2.97367 4.50021 2.32497C5.55225 1.67628 6.76396 1.33294 7.99992 1.33333C9.79659 1.33333 11.3059 1.99333 12.4599 3.07L10.5486 4.982C9.85725 4.32133 8.97859 3.98466 7.99992 3.98466C6.26325 3.98466 4.79325 5.158 4.26992 6.73333C4.13659 7.13333 4.06059 7.56 4.06059 8C4.06059 8.44 4.13659 8.86666 4.26992 9.26666C4.79392 10.8427 6.26325 12.0153 7.99992 12.0153C8.89659 12.0153 9.65992 11.7787 10.2573 11.3787C10.6035 11.1507 10.9 10.8548 11.1287 10.509C11.3574 10.1632 11.5136 9.77457 11.5879 9.36666H7.99992V6.788H14.2786C14.3573 7.224 14.3999 7.67866 14.3999 8.15133C14.3999 10.182 13.6733 11.8913 12.4119 13.0513C11.3093 14.07 9.79992 14.6667 7.99992 14.6667C7.12434 14.667 6.25728 14.4948 5.44828 14.1599C4.63929 13.825 3.90422 13.3339 3.28509 12.7148C2.66597 12.0957 2.17492 11.3606 1.84001 10.5516C1.5051 9.74264 1.3329 8.87557 1.33325 8C1.33325 6.924 1.59059 5.90666 2.04259 5.00666Z" fill="#DB4437"/>
</g>
<defs>
<clipPath id="clip0_20_480">
<rect width="16" height="16" fill="white"/>
</clipPath>
</defs>
</svg>
