<svg width="14" height="14" viewBox="0 0 14 14" fill="none" xmlns="http://www.w3.org/2000/svg">
<path fill-rule="evenodd" clip-rule="evenodd" d="M9.23917 0.583336H4.76089C4.4534 0.583327 4.18811 0.583318 3.96961 0.601169C3.73899 0.62001 3.50961 0.661614 3.28889 0.774075C2.95961 0.941853 2.69189 1.20957 2.52411 1.53885C2.41165 1.75958 2.37005 1.98895 2.35121 2.21957C2.33336 2.43807 2.33336 2.70334 2.33337 3.01083V10.9891C2.33336 11.2967 2.33336 11.562 2.35121 11.7804C2.37005 12.0111 2.41165 12.2404 2.52411 12.4612C2.69189 12.7905 2.95961 13.0582 3.28889 13.2259C3.50961 13.3384 3.73899 13.38 3.96961 13.3988C4.18811 13.4167 4.45338 13.4167 4.76088 13.4167H9.23922C9.5467 13.4167 9.812 13.4167 10.0305 13.3988C10.2611 13.38 10.4905 13.3384 10.7112 13.2259C11.0405 13.0582 11.3082 12.7905 11.476 12.4612C11.5884 12.2404 11.63 12.0111 11.6489 11.7804C11.6667 11.562 11.6667 11.2967 11.6667 10.9892V3.01087C11.6667 2.70339 11.6667 2.43806 11.6489 2.21957C11.63 1.98895 11.5884 1.75958 11.476 1.53885C11.3082 1.20957 11.0405 0.941853 10.7112 0.774075C10.4905 0.661614 10.2611 0.62001 10.0305 0.601169C9.812 0.583318 9.5467 0.583327 9.23917 0.583336ZM8.75004 1.75V1.98334C8.75004 2.31003 8.75004 2.47338 8.68646 2.59816C8.63052 2.70792 8.54132 2.79716 8.43154 2.85309C8.30677 2.91667 8.14343 2.91667 7.81671 2.91667H6.18337C5.85665 2.91667 5.69333 2.91667 5.56855 2.85309C5.45879 2.79716 5.36955 2.70792 5.31362 2.59816C5.25004 2.47338 5.25004 2.31003 5.25004 1.98334V1.75H8.75004Z" fill="#F95C00"/>
</svg>
