<svg width="48" height="48" viewBox="0 0 48 48" fill="none" xmlns="http://www.w3.org/2000/svg">
<path opacity="0.12" d="M33 26C39.0752 26 44 24.2092 44 22V38C44 40.2092 39.0752 42 33 42C26.9248 42 22 40.2092 22 38V22C22 24.2092 26.9248 26 33 26Z" fill="#F95C00"/>
<path d="M26 10C26 12.2091 21.0752 14 15 14C8.92486 14 4 12.2091 4 10M26 10C26 7.79086 21.0752 6 15 6C8.92486 6 4 7.79086 4 10M26 10V18.9143C23.557 19.648 22 20.7578 22 22M4 10V34C4 36.2092 8.92486 38 15 38C17.6593 38 20.0982 37.6568 22 37.0858V22M4 18C4 20.2092 8.92486 22 15 22C17.6593 22 20.0982 21.6568 22 21.0858M4 26C4 28.2092 8.92486 30 15 30C17.6593 30 20.0982 29.6568 22 29.0858M44 22C44 24.2092 39.0752 26 33 26C26.9248 26 22 24.2092 22 22M44 22C44 19.7909 39.0752 18 33 18C26.9248 18 22 19.7909 22 22M44 22V38C44 40.2092 39.0752 42 33 42C26.9248 42 22 40.2092 22 38V22M44 30C44 32.2092 39.0752 34 33 34C26.9248 34 22 32.2092 22 30" stroke="#F95C00" stroke-width="2" stroke-linecap="round" stroke-linejoin="round"/>
</svg>
