<svg width="16" height="16" viewBox="0 0 16 16" fill="none" xmlns="http://www.w3.org/2000/svg">
<g clip-path="url(#clip0_20_489)">
<path d="M14.7747 3.77068C14.2657 3.99581 13.726 4.14366 13.1734 4.20935C13.7559 3.86097 14.1918 3.31269 14.4 2.66668C13.8534 2.99201 13.254 3.22001 12.6294 3.34335C12.2098 2.8944 11.6536 2.59665 11.0473 2.4964C10.4411 2.39615 9.81866 2.49901 9.27688 2.78898C8.7351 3.07896 8.30429 3.5398 8.05144 4.09987C7.7986 4.65995 7.73787 5.28787 7.8787 5.88601C6.77011 5.83045 5.68559 5.54236 4.69556 5.04045C3.70553 4.53855 2.83212 3.83404 2.13204 2.97268C1.88423 3.39831 1.75401 3.88216 1.7547 4.37468C1.7547 5.34135 2.2467 6.19535 2.9947 6.69535C2.55204 6.68141 2.11912 6.56187 1.73204 6.34668V6.38135C1.73217 7.02515 1.95495 7.64909 2.3626 8.14739C2.77025 8.64568 3.33769 8.98766 3.9687 9.11535C3.55778 9.2267 3.12691 9.24312 2.7087 9.16335C2.88661 9.7175 3.23337 10.2021 3.70043 10.5494C4.16749 10.8967 4.73145 11.0892 5.31337 11.1C4.73502 11.5542 4.07282 11.89 3.36462 12.0881C2.65642 12.2863 1.91612 12.3428 1.18604 12.2547C2.4605 13.0743 3.9441 13.5094 5.45937 13.508C10.588 13.508 13.3927 9.25935 13.3927 5.57468C13.3927 5.45468 13.3894 5.33335 13.384 5.21468C13.9299 4.82012 14.4011 4.33136 14.7754 3.77135L14.7747 3.77068Z" fill="#1DA1F2"/>
</g>
<defs>
<clipPath id="clip0_20_489">
<rect width="16" height="16" fill="white"/>
</clipPath>
</defs>
</svg>
