<svg width="24" height="25" viewBox="0 0 24 25" fill="none" xmlns="http://www.w3.org/2000/svg">
<g clip-path="url(#clip0_4_378)">
<path d="M24.8087 5.29463C23.8795 5.70565 22.8941 5.97558 21.8852 6.0955C22.9486 5.45947 23.7446 4.45848 24.1247 3.27907C23.1266 3.87303 22.0324 4.28928 20.892 4.51445C20.1259 3.69481 19.1105 3.15123 18.0037 2.9682C16.8968 2.78517 15.7605 2.97295 14.7714 3.50235C13.7823 4.03176 12.9957 4.87312 12.5341 5.89564C12.0725 6.91816 11.9616 8.06454 12.2187 9.15658C10.1948 9.05513 8.2148 8.52917 6.40731 7.61285C4.59982 6.69652 3.00524 5.41032 1.7271 3.83773C1.27469 4.6148 1.03694 5.49817 1.03821 6.39735C1.03821 8.16218 1.93645 9.72132 3.30207 10.6342C2.4939 10.6087 1.70353 10.3905 0.996827 9.99761V10.0609C0.997071 11.2363 1.4038 12.3754 2.14804 13.2851C2.89229 14.1949 3.92826 14.8192 5.08029 15.0523C4.33007 15.2556 3.54343 15.2856 2.77992 15.14C3.10473 16.1517 3.73781 17.0365 4.59051 17.6705C5.44321 18.3045 6.47284 18.656 7.53523 18.6757C6.47935 19.505 5.27038 20.118 3.97743 20.4797C2.68448 20.8414 1.33291 20.9448 0 20.7838C2.32678 22.2802 5.03537 23.0746 7.80178 23.072C17.1651 23.072 22.2856 15.3152 22.2856 8.58818C22.2856 8.36909 22.2795 8.14758 22.2698 7.93093C23.2664 7.21059 24.1266 6.31826 24.8099 5.29585L24.8087 5.29463Z" fill="#0F1425"/>
</g>
<defs>
<clipPath id="clip0_4_378">
<rect width="24" height="24" fill="white" transform="translate(0 0.5)"/>
</clipPath>
</defs>
</svg>
