<svg width="14" height="14" viewBox="0 0 14 14" fill="none" xmlns="http://www.w3.org/2000/svg">
<g clip-path="url(#clip0_106_415)">
<path d="M4.08337 5.54167C4.08337 3.93084 5.38921 2.625 7.00004 2.625C8.61086 2.625 9.91671 3.93084 9.91671 5.54167C9.91671 7.15248 8.61086 8.45833 7.00004 8.45833C5.38921 8.45833 4.08337 7.15248 4.08337 5.54167Z" fill="#F95C00"/>
<path fill-rule="evenodd" clip-rule="evenodd" d="M10.0575 0.583336H3.94262C3.47306 0.583329 3.08551 0.583323 2.76981 0.609114C2.44192 0.635906 2.14051 0.693399 1.8574 0.837658C1.41835 1.06136 1.0614 1.41831 0.837696 1.85736C0.693438 2.14047 0.635944 2.44188 0.609152 2.76977C0.583361 3.08547 0.583367 3.47301 0.583374 3.94257V10.0574C0.583367 10.527 0.583361 10.9145 0.609152 11.2302C0.635944 11.5581 0.693438 11.8595 0.837696 12.1427C1.0614 12.5817 1.41835 12.9386 1.8574 13.1623C2.14051 13.3066 2.44192 13.3641 2.76981 13.3909C3.08551 13.4167 3.47304 13.4167 3.9426 13.4167H10.0575C10.527 13.4167 10.9146 13.4167 11.2303 13.3909C11.5581 13.3641 11.8596 13.3066 12.1427 13.1623C12.5817 12.9386 12.9387 12.5817 13.1624 12.1427C13.3066 11.8595 13.3641 11.5581 13.3909 11.2302C13.4167 10.9145 13.4167 10.527 13.4167 10.0574V3.94257C13.4167 3.47301 13.4167 3.08547 13.3909 2.76977C13.3641 2.44188 13.3066 2.14047 13.1624 1.85736C12.9387 1.41831 12.5817 1.06136 12.1427 0.837658C11.8596 0.693399 11.5581 0.635906 11.2303 0.609114C10.9146 0.583323 10.527 0.583329 10.0575 0.583336ZM2.38705 1.87716C2.47829 1.83068 2.60907 1.7928 2.86481 1.77191C3.12737 1.75046 3.46704 1.75 3.96671 1.75H10.0334C10.5331 1.75 10.8727 1.75046 11.1353 1.77191C11.391 1.7928 11.5218 1.83068 11.613 1.87716C11.8325 1.98901 12.011 2.16749 12.1229 2.38701C12.1694 2.47825 12.2072 2.60903 12.2281 2.86478C12.2496 3.12733 12.25 3.467 12.25 3.96667V10.0333C12.25 10.533 12.2496 10.8727 12.2281 11.1353C12.213 11.3207 12.1889 11.4405 12.159 11.5271C11.8823 10.4443 11.0076 9.60925 9.90242 9.38939C9.61962 9.33316 9.29452 9.33322 8.81759 9.33334H5.18254C4.70561 9.33322 4.38051 9.33316 4.09772 9.38939C2.99251 9.60925 2.11775 10.4444 1.84104 11.5271C1.8112 11.4405 1.78711 11.3208 1.77195 11.1353C1.7505 10.8727 1.75004 10.533 1.75004 10.0333V3.96667C1.75004 3.467 1.7505 3.12733 1.77195 2.86478C1.79284 2.60903 1.83072 2.47825 1.8772 2.38701C1.98905 2.16749 2.16753 1.98901 2.38705 1.87716Z" fill="#F95C00"/>
</g>
<defs>
<clipPath id="clip0_106_415">
<rect width="14" height="14" fill="white"/>
</clipPath>
</defs>
</svg>
