<svg width="97" height="65" viewBox="0 0 97 65" fill="none" xmlns="http://www.w3.org/2000/svg">
<rect width="92" height="60" rx="8" fill="white"/>
<path opacity="0.4" d="M61 28.5V24.3C61 22.6198 61 21.7798 60.673 21.138C60.3854 20.5735 59.9265 20.1146 59.362 19.827C58.7203 19.5 57.8801 19.5 56.2 19.5H35.8C34.1198 19.5 33.2798 19.5 32.638 19.827C32.0735 20.1146 31.6146 20.5735 31.327 21.138C31 21.7798 31 22.6198 31 24.3V29.7C31 31.3802 31 32.2203 31.327 32.862C31.6146 33.4264 32.0735 33.8854 32.638 34.173C33.2798 34.5 34.1198 34.5 35.8 34.5H44.5M46 27H46.0075M53.5 27H53.5075M38.5 27H38.5075M46.375 27C46.375 27.2071 46.2071 27.375 46 27.375C45.7929 27.375 45.625 27.2071 45.625 27C45.625 26.7929 45.7929 26.625 46 26.625C46.2071 26.625 46.375 26.7929 46.375 27ZM53.875 27C53.875 27.2071 53.7071 27.375 53.5 27.375C53.2929 27.375 53.125 27.2071 53.125 27C53.125 26.7929 53.2929 26.625 53.5 26.625C53.7071 26.625 53.875 26.7929 53.875 27ZM38.875 27C38.875 27.2071 38.7071 27.375 38.5 27.375C38.2929 27.375 38.125 27.2071 38.125 27C38.125 26.7929 38.2929 26.625 38.5 26.625C38.7071 26.625 38.875 26.7929 38.875 27Z" stroke="#F95C00" stroke-width="2" stroke-linecap="round" stroke-linejoin="round"/>
<path d="M56.875 37.5V34.875C56.875 33.4253 55.6997 32.25 54.25 32.25C52.8003 32.25 51.625 33.4253 51.625 34.875V37.5M51.4 43.5H57.1C57.9401 43.5 58.3602 43.5 58.681 43.3365C58.9633 43.1927 59.1927 42.9633 59.3365 42.681C59.5 42.3602 59.5 41.9401 59.5 41.1V39.9C59.5 39.0599 59.5 38.6398 59.3365 38.319C59.1927 38.0367 58.9633 37.8073 58.681 37.6635C58.3602 37.5 57.9401 37.5 57.1 37.5H51.4C50.5599 37.5 50.1398 37.5 49.819 37.6635C49.5367 37.8073 49.3074 38.0367 49.1635 38.319C49 38.6398 49 39.0599 49 39.9V41.1C49 41.9401 49 42.3602 49.1635 42.681C49.3074 42.9633 49.5367 43.1927 49.819 43.3365C50.1398 43.5 50.5599 43.5 51.4 43.5Z" stroke="#F95C00" stroke-width="2" stroke-linecap="round" stroke-linejoin="round"/>
<rect x="0.5" y="0.5" width="91" height="59" rx="7.5" stroke="#868A8F" stroke-opacity="0.1"/>
<g clip-path="url(#clip0_180_377)">
<path fill-rule="evenodd" clip-rule="evenodd" d="M78.693 55C78.6927 54.8885 78.6708 54.7771 78.6272 54.6721L78.026 53.2165C77.899 52.9099 77.8334 52.5808 77.8334 52.249C77.8333 51.917 77.8987 51.5882 78.0257 51.2815C78.1528 50.9747 78.339 50.696 78.5738 50.4613C78.8086 50.2266 79.0872 50.0405 79.3939 49.9135L80.8472 49.3115C81.0577 49.2245 81.2255 49.0574 81.3132 48.8472L81.9153 47.3935C82.1718 46.7742 82.6637 46.2822 83.283 46.0257C83.9022 45.7692 84.598 45.7692 85.2172 46.0257L86.6698 46.6274C86.8806 46.7144 87.1175 46.7143 87.3282 46.6269L87.3299 46.6262L88.7837 46.0266C89.4027 45.7704 90.0986 45.7704 90.7176 46.0267C91.3367 46.2832 91.8286 46.7751 92.0851 47.3941L92.6728 48.8129C92.678 48.8241 92.683 48.8355 92.6878 48.847C92.7749 49.0577 92.942 49.2252 93.1525 49.3128L94.6066 49.9151C95.2259 50.1716 95.7179 50.6636 95.9744 51.2828C96.2308 51.9021 96.2308 52.5978 95.9744 53.2171L95.3724 54.6704C95.3286 54.7759 95.3068 54.8884 95.3068 55.0003C95.3068 55.1121 95.3286 55.2241 95.3724 55.3296L95.9744 56.7829C96.2308 57.4022 96.2308 58.0979 95.9744 58.7172C95.7179 59.3364 95.2259 59.8284 94.6066 60.0849L93.1525 60.6873C92.942 60.7748 92.7749 60.9423 92.6878 61.153C92.683 61.1645 92.678 61.1758 92.6728 61.1871L92.0851 62.6058C91.8286 63.2249 91.3367 63.7168 90.7176 63.9733C90.0986 64.2297 89.4027 64.2296 88.7837 63.9734L87.3299 63.3738L87.3282 63.3731C87.1175 63.2857 86.8806 63.2856 86.6698 63.3726L85.2172 63.9743C84.598 64.2308 83.9022 64.2308 83.283 63.9743C82.6637 63.7178 82.1718 63.2258 81.9153 62.6066L81.3132 61.1528C81.2255 60.9426 81.0577 60.7755 80.8472 60.6885L79.3939 60.0865C79.0872 59.9595 78.8086 59.7734 78.5738 59.5388C78.339 59.304 78.1528 59.0253 78.0257 58.7185C77.8987 58.4118 77.8333 58.083 77.8334 57.751C77.8334 57.4192 77.899 57.0901 78.026 56.7835L78.6272 55.3279C78.6708 55.2229 78.6927 55.1115 78.693 55ZM90.506 53.5059C90.8314 53.1805 90.8314 52.6529 90.506 52.3274C90.1805 52.002 89.6529 52.002 89.3275 52.3274L86.1667 55.4882L85.0893 54.4108C84.7639 54.0853 84.2362 54.0853 83.9108 54.4108C83.5853 54.7362 83.5853 55.2638 83.9108 55.5893L85.5775 57.2559C85.9029 57.5813 86.4305 57.5813 86.756 57.2559L90.506 53.5059Z" fill="#3DD079"/>
</g>
<defs>
<clipPath id="clip0_180_377">
<rect width="20" height="20" fill="white" transform="translate(77 45)"/>
</clipPath>
</defs>
</svg>
