<svg width="24" height="25" viewBox="0 0 24 25" fill="none" xmlns="http://www.w3.org/2000/svg">
<g clip-path="url(#clip0_4_381)">
<path d="M2.40385 22.1L3.70177 17.3307C2.84655 15.8646 2.39723 14.1973 2.40001 12.5C2.40001 7.19791 6.69793 2.89999 12 2.89999C17.3021 2.89999 21.6 7.19791 21.6 12.5C21.6 17.8021 17.3021 22.1 12 22.1C10.3035 22.1027 8.6368 21.6537 7.17121 20.7992L2.40385 22.1ZM8.53537 7.99567C8.4114 8.00337 8.29026 8.03602 8.17921 8.09167C8.07507 8.15064 7.98001 8.22437 7.89697 8.31055C7.78177 8.41903 7.71649 8.51311 7.64641 8.60431C7.2916 9.06606 7.10076 9.63287 7.10401 10.2152C7.10593 10.6856 7.22881 11.1435 7.42081 11.5717C7.81345 12.4376 8.45953 13.3544 9.31297 14.204C9.51841 14.4085 9.71905 14.6139 9.93505 14.8049C10.9943 15.7375 12.2566 16.4101 13.6214 16.7691L14.1677 16.8526C14.3453 16.8622 14.5229 16.8488 14.7014 16.8401C14.981 16.8257 15.254 16.75 15.5011 16.6184C15.6605 16.5339 15.7354 16.4917 15.8688 16.4072C15.8688 16.4072 15.9101 16.3803 15.9888 16.3208C16.1184 16.2248 16.1981 16.1566 16.3056 16.0443C16.3853 15.9617 16.4544 15.8648 16.5072 15.7544C16.5821 15.5979 16.657 15.2993 16.6877 15.0507C16.7107 14.8606 16.704 14.7569 16.7011 14.6926C16.6973 14.5899 16.6118 14.4833 16.5187 14.4382L15.96 14.1877C15.96 14.1877 15.1248 13.8238 14.615 13.5915C14.5613 13.5681 14.5037 13.5547 14.4451 13.5521C14.3794 13.5454 14.3131 13.5528 14.2505 13.5738C14.1879 13.5948 14.1305 13.629 14.0822 13.6741V13.6721C14.0774 13.6721 14.0131 13.7269 13.319 14.5678C13.2792 14.6214 13.2243 14.6618 13.1614 14.684C13.0985 14.7063 13.0304 14.7093 12.9658 14.6926C12.9032 14.6759 12.8419 14.6547 12.7824 14.6293C12.6634 14.5793 12.6221 14.5601 12.5405 14.5246L12.5357 14.5227C11.9865 14.2829 11.478 13.959 11.0285 13.5627C10.9075 13.4571 10.7952 13.3419 10.68 13.2305C10.3023 12.8689 9.97317 12.4597 9.70081 12.0133L9.64417 11.9221C9.60349 11.8608 9.57059 11.7947 9.54625 11.7253C9.50977 11.5841 9.60481 11.4709 9.60481 11.4709C9.60481 11.4709 9.83809 11.2155 9.94657 11.0773C10.0369 10.9624 10.1212 10.8429 10.199 10.7192C10.3123 10.5368 10.3478 10.3496 10.2883 10.2046C10.0195 9.54799 9.74113 8.89423 9.45505 8.24527C9.39841 8.11663 9.23041 8.02447 9.07777 8.00623C9.02593 8.00047 8.97409 7.99471 8.92225 7.99087C8.79333 7.98446 8.66414 7.98575 8.53537 7.99471V7.99567Z" fill="#0F1425"/>
</g>
<defs>
<clipPath id="clip0_4_381">
<rect width="24" height="24" fill="white" transform="translate(0 0.5)"/>
</clipPath>
</defs>
</svg>
